<svg height="755" viewBox="0 0 1510 755" width="1510" xmlns="http://www.w3.org/2000/svg" xmlns:xlink="http://www.w3.org/1999/xlink"><clipPath id="a"><path clip-rule="evenodd" d="m0 .00018311h1133.88v566.87999689h-1133.88z"/></clipPath><clipPath id="b"><path clip-rule="evenodd" d="m-.00003052 566.88h1133.88003052v-566.87975586l-1133.88-.00006103"/></clipPath><clipPath id="c"><path clip-rule="evenodd" d="m0 .00018311h1133.88v566.87999689h-1133.88z"/></clipPath><g transform="matrix(1.3333333 0 0 -1.3333333 0 755.84)"><g clip-path="url(#a)" stroke-width="1.00118" transform="matrix(.99878296 0 0 .9988889 0 .629696)"><path d="m0 .00006104h1133.88v566.87999896h-1133.88z" fill="#fff" fill-rule="evenodd"/></g><g clip-path="url(#c)" stroke-width=".746267" transform="matrix(1.7976191 0 0 .99888868 -905.78429 .629986)"><path d="m503.88 283.44h630v283.44h-630z" fill="#c30000" fill-rule="evenodd"/></g><path d="m0 283.75499h503.88v283.12501h-503.88z" fill="#002b7f" fill-rule="evenodd"/><path d="m251.99 539.28c3.94 0 7.83-.2 11.67-.59l8.02-1.22-3.33-.51c-52.05-10.64-91.2-56.65-91.2-111.8s39.15-101.16 91.2-111.8l3.33-.51-8.02-1.22c-3.84-.39-7.73-.59-11.67-.59-63.09 0-114.23 51.09-114.23 114.12s51.14 114.12 114.23 114.12z" fill="#fcd116" fill-rule="evenodd"/><g clip-path="url(#b)"><path d="m230.61 466.69 51.67-14.29 30.26 47.25 1.68-56.09 51.67-14.29-50.64-20.37 1.67-56.09-32.96 43.5-50.64-20.37 30.26 47.26z" fill="#fcd116" fill-rule="evenodd"/></g></g></svg>